<svg width="17" height="17" viewBox="0 0 17 17" fill="none" xmlns="http://www.w3.org/2000/svg">
<path d="M14.1666 15.8333V2.49992C14.1666 1.57944 13.4204 0.833252 12.4999 0.833252H4.16659C3.24611 0.833252 2.49992 1.57944 2.49992 2.49992V15.8333M14.1666 15.8333H15.8333M14.1666 15.8333H9.99992M2.49992 15.8333H0.833252M2.49992 15.8333H6.66658M5.83325 4.16659H6.66658M5.83325 7.49992H6.66658M9.99992 4.16659H10.8333M9.99992 7.49992H10.8333M6.66658 15.8333V11.6666C6.66658 11.2063 7.03968 10.8333 7.49992 10.8333H9.16658C9.62682 10.8333 9.99992 11.2063 9.99992 11.6666V15.8333M6.66658 15.8333H9.99992" stroke="#6B7280" stroke-width="1.66667" stroke-linecap="round" stroke-linejoin="round"/>
</svg>
