<svg width="24" height="25" viewBox="0 0 24 25" fill="none" xmlns="http://www.w3.org/2000/svg">
<path fill-rule="evenodd" clip-rule="evenodd" d="M5.39835 22.3063C2.65046 20.2418 1 17.0105 1 13.5068C1 7.4317 5.92487 2.50684 12 2.50684C18.0751 2.50684 23 7.4317 23 13.5068C23 17.0105 21.3495 20.2418 18.6017 22.3063L18.3348 22.5068H5.66522L5.39835 22.3063ZM17.6575 20.5068C19.753 18.8118 21 16.2638 21 13.5068C21 8.53627 16.9706 4.50684 12 4.50684C7.02944 4.50684 3 8.53627 3 13.5068C3 16.2638 4.24698 18.8118 6.34253 20.5068H17.6575ZM17.3192 8.0803L15.6808 6.93337L13.0477 10.6949C12.7216 10.5733 12.3685 10.5068 12 10.5068C10.3431 10.5068 9 11.85 9 13.5068C9 15.1637 10.3431 16.5068 12 16.5068C13.6569 16.5068 15 15.1637 15 13.5068C15 12.9514 14.849 12.4312 14.5859 11.985L17.3192 8.0803ZM13 13.5068C13 14.0591 12.5523 14.5068 12 14.5068C11.4477 14.5068 11 14.0591 11 13.5068C11 12.9546 11.4477 12.5068 12 12.5068C12.5523 12.5068 13 12.9546 13 13.5068Z" fill="#8B8B8B"/>
</svg>
