<svg width="109" height="108" viewBox="0 0 109 108" fill="none" xmlns="http://www.w3.org/2000/svg">
<mask id="mask0_613_3700" style="mask-type:luminance" maskUnits="userSpaceOnUse" x="0" y="0" width="109" height="108">
<path d="M0.5 0H108.5V108H0.5V0Z" fill="white"/>
</mask>
<g mask="url(#mask0_613_3700)">
<mask id="mask1_613_3700" style="mask-type:luminance" maskUnits="userSpaceOnUse" x="0" y="0" width="109" height="108">
<path d="M0.5 0H108.5V108H0.5V0Z" fill="white"/>
</mask>
<g mask="url(#mask1_613_3700)">
<mask id="mask2_613_3700" style="mask-type:luminance" maskUnits="userSpaceOnUse" x="0" y="0" width="109" height="108">
<path d="M0.5 0H108.5V108H0.5V0Z" fill="white"/>
</mask>
<g mask="url(#mask2_613_3700)">
<path fill-rule="evenodd" clip-rule="evenodd" d="M97.6952 54.6402C98.1755 22.2461 87.5345 11.2848 55.1404 10.8045C22.7463 10.3242 11.785 20.9652 11.3046 53.3593C10.8243 85.7534 21.4653 96.7147 53.8594 97.195C86.2535 97.6753 97.2148 87.0343 97.6952 54.6402Z" fill="#F33A00"/>
<path d="M42.1515 48.6091C42.1515 48.1389 42.3374 47.688 42.6682 47.3554C42.999 47.0229 43.4477 46.8361 43.9155 46.8361C44.3834 46.8361 44.8321 47.0229 45.1629 47.3554C45.4937 47.6879 45.6795 48.1389 45.6795 48.6091V73.4312C45.6795 73.9014 45.4937 74.3524 45.1629 74.6849C44.8321 75.0174 44.3834 75.2042 43.9155 75.2042C43.4477 75.2042 42.999 75.0174 42.6682 74.6849C42.3374 74.3524 42.1515 73.9014 42.1515 73.4312V48.6091ZM52.7355 48.6091C52.7355 48.1389 52.9214 47.688 53.2522 47.3554C53.583 47.0229 54.0317 46.8361 54.4995 46.8361C54.9674 46.8361 55.4161 47.0229 55.7469 47.3554C56.0777 47.6879 56.2635 48.1389 56.2635 48.6091V73.4312C56.2635 73.9014 56.0777 74.3524 55.7469 74.6849C55.4161 75.0174 54.9674 75.2042 54.4995 75.2042C54.0317 75.2042 53.583 75.0174 53.2522 74.6849C52.9214 74.3524 52.7355 73.9014 52.7355 73.4312V48.6091ZM63.3195 48.6091C63.3195 48.1389 63.5054 47.688 63.8362 47.3554C64.167 47.0229 64.6157 46.8361 65.0835 46.8361C65.5514 46.8361 66.0001 47.0229 66.3309 47.3554C66.6617 47.6879 66.8475 48.1389 66.8475 48.6091V73.4312C66.8475 73.9014 66.6617 74.3524 66.3309 74.6849C66.0001 75.0174 65.5514 75.2042 65.0835 75.2042C64.6157 75.2042 64.167 75.0174 63.8362 74.6849C63.5054 74.3524 63.3195 73.9014 63.3195 73.4312V48.6091ZM33.3315 76.9771C33.3315 78.3878 33.8891 79.7407 34.8815 80.7382C35.874 81.7357 37.22 82.2961 38.6235 82.2961H70.3755C71.7791 82.2961 73.1251 81.7357 74.1175 80.7382C75.11 79.7407 75.6675 78.3878 75.6675 76.9771V39.7441H33.3315V76.9771Z" fill="white"/>
<path d="M77.6704 29.2066L64.3647 29.0093L63.353 26.9324C63.1387 26.4884 62.8041 26.1127 62.3868 25.8474C61.9695 25.5821 61.4861 25.4379 60.9908 25.4309L48.3172 25.243C47.8231 25.2338 47.3364 25.3631 46.9129 25.6162C46.4894 25.8693 46.1462 26.2359 45.9226 26.674L44.8497 28.72L31.5441 28.5227C31.0735 28.5157 30.6195 28.6949 30.2819 29.0207C29.9443 29.3465 29.7507 29.7924 29.7438 30.2602L29.6915 33.7878C29.6846 34.2556 29.8648 34.707 30.1926 35.0427C30.5204 35.3784 30.9689 35.5709 31.4394 35.5779L77.5658 36.2618C78.0363 36.2688 78.4903 36.0897 78.8279 35.7638C79.1655 35.438 79.3591 34.9921 79.366 34.5243L79.4183 30.9967C79.4253 30.5289 79.245 30.0775 78.9172 29.7418C78.5894 29.4061 78.1409 29.2136 77.6704 29.2066Z" fill="white"/>
</g>
</g>
</g>
</svg>
