<svg width="28" height="28" viewBox="0 0 28 28" fill="none" xmlns="http://www.w3.org/2000/svg">
<path d="M19.4918 15.9918L14.8251 20.6585C14.3695 21.1141 13.6308 21.1141 13.1752 20.6585L8.50854 15.9918C8.05293 15.5362 8.05293 14.7975 8.50854 14.3419C8.96415 13.8863 9.70284 13.8863 10.1585 14.3419L12.8335 17.0169V3.50016C12.8335 2.85583 13.3558 2.3335 14.0002 2.3335C14.6445 2.3335 15.1668 2.85583 15.1668 3.50016V17.0169L17.8419 14.3419C18.2975 13.8863 19.0362 13.8863 19.4918 14.3419C19.9474 14.7975 19.9474 15.5362 19.4918 15.9918Z" fill="#475367"/>
<path d="M4.66683 20.4168C4.66683 19.7725 4.14449 19.2502 3.50016 19.2502C2.85583 19.2502 2.3335 19.7725 2.3335 20.4168V22.1668C2.3335 24.7442 4.42283 26.8335 7.00016 26.8335H21.0002C23.5775 26.8335 25.6668 24.7442 25.6668 22.1668V20.4168C25.6668 19.7725 25.1445 19.2502 24.5002 19.2502C23.8558 19.2502 23.3335 19.7725 23.3335 20.4168V22.1668C23.3335 23.4555 22.2888 24.5002 21.0002 24.5002H7.00016C5.7115 24.5002 4.66683 23.4555 4.66683 22.1668V20.4168Z" fill="#475367"/>
</svg>
