<svg width="64" height="53" viewBox="0 0 64 53" fill="none" xmlns="http://www.w3.org/2000/svg">
<rect width="64" height="53" rx="26.5" fill="#EC5B13" fill-opacity="0.1"/>
<path d="M24.5 29H28.3125L34.5625 22.75C34.75 22.5625 34.8906 22.349 34.9844 22.1094C35.0781 21.8698 35.125 21.6354 35.125 21.4062C35.125 21.1771 35.0729 20.9531 34.9688 20.7344C34.8646 20.5156 34.7292 20.3125 34.5625 20.125L33.4375 18.9375C33.25 18.75 33.0417 18.6094 32.8125 18.5156C32.5833 18.4219 32.3438 18.375 32.0938 18.375C31.8646 18.375 31.6302 18.4219 31.3906 18.5156C31.151 18.6094 30.9375 18.75 30.75 18.9375L24.5 25.1875V29ZM33.25 21.4062L32.0938 20.25L33.25 21.4062ZM26.375 27.125V25.9375L29.5312 22.7812L30.1562 23.3438L30.7188 23.9688L27.5625 27.125H26.375ZM30.1562 23.3438L30.7188 23.9688L29.5312 22.7812L30.1562 23.3438ZM30.9688 29H39.5V26.5H33.4688L30.9688 29ZM19.5 39V16.5C19.5 15.8125 19.7448 15.224 20.2344 14.7344C20.724 14.2448 21.3125 14 22 14H42C42.6875 14 43.276 14.2448 43.7656 14.7344C44.2552 15.224 44.5 15.8125 44.5 16.5V31.5C44.5 32.1875 44.2552 32.776 43.7656 33.2656C43.276 33.7552 42.6875 34 42 34H24.5L19.5 39ZM23.4375 31.5H42V16.5H22V32.9062L23.4375 31.5ZM22 31.5V16.5V31.5Z" fill="#3E7FFF"/>
</svg>
