<svg width="44" height="48" viewBox="0 0 44 48" fill="none" xmlns="http://www.w3.org/2000/svg">
<path d="M34 0L42 8V46C42 47.1046 41.1046 48 40 48H4C2.89543 48 2 47.1046 2 46V2C2 0.895431 2.89543 1.61064e-08 4 0H34Z" fill="#E4E7EC"/>
<path d="M42 8H34V0L42 8Z" fill="#98A2B3"/>
<rect y="20" width="44" height="20" rx="2" fill="#CC400C"/>
<path d="M7.32764 35.818V24.1816H11.6913C12.5852 24.1816 13.3352 24.3483 13.9413 24.6816C14.5511 25.015 15.0113 25.4733 15.322 26.0566C15.6363 26.6362 15.7935 27.2953 15.7935 28.0339C15.7935 28.7801 15.6363 29.443 15.322 30.0226C15.0076 30.6021 14.5435 31.0585 13.9299 31.3919C13.3163 31.7214 12.5606 31.8862 11.6629 31.8862H8.77082V30.1532H11.3788C11.9015 30.1532 12.3295 30.0623 12.6629 29.8805C12.9962 29.6987 13.2424 29.4487 13.4015 29.1305C13.5644 28.8123 13.6458 28.4468 13.6458 28.0339C13.6458 27.621 13.5644 27.2574 13.4015 26.943C13.2424 26.6286 12.9943 26.3843 12.6572 26.21C12.3238 26.032 11.8939 25.943 11.3674 25.943H9.43559V35.818H7.32764Z" fill="white"/>
<path d="M21.5677 35.818H17.6245V24.1816H21.6472C22.8025 24.1816 23.795 24.4146 24.6245 24.8805C25.4578 25.3426 26.098 26.0074 26.545 26.8748C26.9919 27.7422 27.2154 28.7801 27.2154 29.9885C27.2154 31.2006 26.99 32.2422 26.5393 33.1135C26.0923 33.9847 25.4465 34.6532 24.6018 35.1191C23.7609 35.585 22.7495 35.818 21.5677 35.818ZM19.7325 33.9941H21.4654C22.276 33.9941 22.9522 33.8464 23.4938 33.551C24.0355 33.2517 24.4427 32.8066 24.7154 32.2157C24.9881 31.621 25.1245 30.8786 25.1245 29.9885C25.1245 29.0983 24.9881 28.3597 24.7154 27.7725C24.4427 27.1816 24.0393 26.7404 23.5052 26.4487C22.9749 26.1532 22.3158 26.0055 21.5279 26.0055H19.7325V33.9941Z" fill="white"/>
<path d="M29.2183 35.818V24.1816H36.6728V25.9487H31.3262V29.1078H36.1614V30.8748H31.3262V35.818H29.2183Z" fill="white"/>
</svg>
