<svg width="84" height="16" viewBox="0 0 84 16" fill="none" xmlns="http://www.w3.org/2000/svg">
<g clip-path="url(#clip0_1137_1952)">
<path d="M11.1646 16.0001L6.31909 9.69547C7.60459 9.69547 8.83743 9.18481 9.74641 8.27583C10.6554 7.36685 11.1661 6.13401 11.1661 4.84851L11.1646 16.0001Z" fill="url(#paint0_linear_1137_1952)"/>
<path d="M11.1645 4.8484C11.1645 3.56302 10.6541 2.33025 9.74548 1.42108C8.83685 0.511911 7.60438 0.00076148 6.319 0H3.01589H0V16H11.1645L6.319 9.69536C7.60424 9.69498 8.83672 9.18415 9.74539 8.27521C10.6541 7.36627 11.1645 6.13364 11.1645 4.8484Z" fill="url(#paint1_linear_1137_1952)"/>
<path d="M26.1781 7.41048C26.624 6.75787 26.8605 5.9849 26.856 5.19453C26.8713 4.62523 26.7547 4.0601 26.5153 3.54337C26.2759 3.02664 25.9201 2.57232 25.4759 2.21598C24.5754 1.47493 23.2226 1.09866 21.4547 1.09866H17.0558C16.9074 1.09615 16.7602 1.12461 16.6234 1.18223C16.4867 1.23985 16.3635 1.32535 16.2616 1.43328C16.1585 1.53851 16.0772 1.66312 16.0225 1.79993C15.9678 1.93673 15.9407 2.08301 15.9428 2.23034V13.797C15.9402 13.9437 15.9675 14.0894 16.023 14.2252C16.0786 14.361 16.1612 14.4841 16.2659 14.5869C16.4793 14.7889 16.762 14.9014 17.0558 14.9014C17.3496 14.9014 17.6323 14.7889 17.8457 14.5869C17.9537 14.4854 18.0393 14.3625 18.0969 14.2259C18.1546 14.0894 18.183 13.9423 18.1803 13.7941V9.66953H21.8295C22.6223 9.66953 23.2154 9.85766 23.5917 10.2268C23.9637 10.5772 24.2214 11.0316 24.3313 11.5308C24.4451 12.0874 24.5014 12.6543 24.4993 13.2225V13.797C24.4944 13.9446 24.5197 14.0916 24.5735 14.2292C24.6273 14.3667 24.7086 14.4918 24.8124 14.5969C24.9206 14.7016 25.049 14.7832 25.1897 14.8368C25.3304 14.8903 25.4805 14.9148 25.631 14.9086C25.7774 14.9103 25.9228 14.8827 26.0584 14.8275C26.194 14.7722 26.3173 14.6904 26.4208 14.5868C26.5244 14.4833 26.6062 14.3601 26.6615 14.2244C26.7167 14.0888 26.7443 13.9434 26.7425 13.797V12.9209C26.7345 11.9943 26.5594 11.0768 26.2255 10.2124C25.9843 9.51307 25.4813 8.93447 24.8224 8.59817C25.3676 8.32341 25.8341 7.91475 26.1781 7.41048ZM23.774 6.9222C23.1852 7.32001 22.3681 7.52106 21.3427 7.52106H18.1832V3.24712H21.2551C22.5146 3.24712 23.4093 3.43382 23.9047 3.80147C24.4002 4.16912 24.6228 4.65454 24.6228 5.32665C24.6349 5.64387 24.5627 5.95865 24.4137 6.23892C24.2646 6.51919 24.0439 6.75495 23.774 6.9222Z" fill="white"/>
<path d="M38.2101 12.6768H31.3554L38.8047 3.45679C38.9154 3.32863 39.0042 3.18306 39.0675 3.02595C39.1337 2.86905 39.1688 2.70078 39.1709 2.53049C39.1782 2.15888 39.0419 1.79879 38.7903 1.52519C38.6591 1.38317 38.4988 1.27116 38.3204 1.1968C38.1419 1.12244 37.9495 1.08749 37.7563 1.09435H29.5588C29.4155 1.09219 29.2734 1.12008 29.1415 1.17623C29.0097 1.23238 28.8911 1.31554 28.7934 1.42035C28.6938 1.52146 28.6152 1.64128 28.5622 1.77291C28.5092 1.90454 28.4828 2.04536 28.4846 2.18725C28.484 2.32855 28.5114 2.46856 28.5652 2.59923C28.6189 2.7299 28.698 2.84864 28.7979 2.94862C28.8977 3.0486 29.0163 3.12784 29.1469 3.18178C29.2775 3.23572 29.4175 3.2633 29.5588 3.26292H36.2814L28.7302 12.582C28.5378 12.8274 28.4363 13.1319 28.4429 13.4437C28.4429 13.8038 28.5859 14.1491 28.8403 14.4038C29.0948 14.6586 29.44 14.8019 29.8001 14.8023H38.2058C38.3457 14.8046 38.4847 14.7792 38.6148 14.7277C38.7449 14.6762 38.8636 14.5996 38.9641 14.5021C39.0664 14.4051 39.1474 14.2879 39.2018 14.1578C39.2562 14.0277 39.2829 13.8877 39.28 13.7467C39.281 13.6053 39.2538 13.4651 39.2002 13.3343C39.1466 13.2034 39.0675 13.0845 38.9676 12.9845C38.8677 12.8844 38.7489 12.8052 38.6181 12.7514C38.4873 12.6976 38.3472 12.6703 38.2058 12.671L38.2101 12.6768Z" fill="white"/>
<path d="M50.7889 1.33988C50.6857 1.44479 50.6044 1.56915 50.5497 1.70572C50.495 1.8423 50.4679 1.98838 50.4701 2.13549V9.65224C50.4895 10.2807 50.3237 10.901 49.9933 11.4359C49.6845 11.9126 49.2474 12.2924 48.7323 12.5317C48.1979 12.7758 47.6173 12.9022 47.0298 12.9022C46.4423 12.9022 45.8616 12.7758 45.3273 12.5317C44.8121 12.2924 44.3751 11.9126 44.0663 11.4359C43.7357 10.9011 43.5698 10.2807 43.5895 9.65224V2.13549C43.5916 1.98659 43.5633 1.83883 43.5063 1.70127C43.4492 1.56372 43.3647 1.43927 43.2578 1.33557C43.1012 1.17726 42.9008 1.06937 42.6824 1.02574C42.464 0.982105 42.2376 1.00472 42.0322 1.09069C41.8267 1.17666 41.6517 1.32206 41.5295 1.50822C41.4073 1.69438 41.3435 1.91282 41.3463 2.13549V9.59623C41.3463 10.7652 41.6335 11.772 42.1864 12.5877C42.7197 13.3811 43.4631 14.0106 44.3334 14.4058C45.1792 14.7947 46.099 14.9961 47.0298 14.9961C47.9606 14.9961 48.8804 14.7947 49.7261 14.4058C50.5988 14.011 51.3445 13.3816 51.8803 12.5877C52.4361 11.772 52.719 10.7652 52.719 9.59623V2.13549C52.7208 1.98664 52.6923 1.83898 52.6353 1.70147C52.5783 1.56396 52.4939 1.43947 52.3873 1.33557C52.2826 1.22986 52.158 1.14602 52.0206 1.08893C51.8833 1.03185 51.7359 1.00265 51.5872 1.00306C51.4384 1.00346 51.2912 1.03344 51.1542 1.09127C51.0171 1.14909 50.893 1.2336 50.7889 1.33988Z" fill="white"/>
<path d="M69.3738 1.0039H68.752C68.448 1.00286 68.1518 1.10009 67.9076 1.28108C67.6664 1.45482 67.476 1.68983 67.3561 1.96181L63.3119 12.0464L59.2634 1.95319C59.144 1.68412 58.9545 1.45202 58.7148 1.28108C58.4713 1.09982 58.1754 1.00255 57.8718 1.0039H57.2485C57.0509 1.00136 56.855 1.03987 56.673 1.117C56.4911 1.19413 56.3271 1.30819 56.1915 1.45198C56.0525 1.59116 55.9428 1.75678 55.8688 1.93905C55.7948 2.12133 55.758 2.31658 55.7607 2.51328V13.797C55.7578 13.9436 55.7849 14.0893 55.8402 14.2251C55.8955 14.3609 55.9779 14.484 56.0824 14.5869C56.2958 14.7889 56.5784 14.9015 56.8723 14.9015C57.1661 14.9015 57.4488 14.7889 57.6622 14.5869C57.7702 14.4854 57.8558 14.3625 57.9134 14.2259C57.971 14.0894 57.9994 13.9423 57.9968 13.7941V4.40898L61.8571 13.9478C61.9742 14.2317 62.1744 14.4735 62.4316 14.6415C62.6908 14.8101 62.9933 14.8999 63.3026 14.8999C63.6118 14.8999 63.9144 14.8101 64.1736 14.6415C64.4308 14.4724 64.631 14.2296 64.7481 13.9449L68.6055 4.40898V13.797C68.6028 13.9453 68.6313 14.0926 68.6892 14.2292C68.7471 14.3657 68.8331 14.4886 68.9416 14.5898C69.0462 14.6933 69.1705 14.7749 69.3071 14.8296C69.4438 14.8844 69.59 14.9112 69.7372 14.9086C69.8836 14.9103 70.029 14.8827 70.1646 14.8275C70.3003 14.7722 70.4235 14.6904 70.5271 14.5869C70.6306 14.4833 70.7124 14.3601 70.7677 14.2244C70.8229 14.0888 70.8505 13.9435 70.8488 13.797V2.51328C70.8516 2.31655 70.8149 2.12126 70.7409 1.93896C70.6669 1.75666 70.5571 1.59106 70.4179 1.45198C70.2839 1.30966 70.1221 1.19644 69.9425 1.11936C69.7629 1.04227 69.5693 1.00297 69.3738 1.0039Z" fill="white"/>
<path d="M82.6912 12.6768H76.2487V9.00892H82.0105C82.1505 9.01152 82.2895 8.98633 82.4197 8.9348C82.5499 8.88328 82.6685 8.80645 82.7688 8.70876C82.8715 8.61207 82.9527 8.49483 83.0071 8.36468C83.0616 8.23454 83.088 8.09439 83.0847 7.95335C83.0857 7.81195 83.0586 7.67177 83.0049 7.54093C82.9513 7.41008 82.8722 7.29119 82.7723 7.19113C82.6724 7.09107 82.5536 7.01185 82.4228 6.95804C82.2921 6.90424 82.1519 6.87693 82.0105 6.87769H76.2487V3.22846H82.6912C82.8312 3.23091 82.9702 3.20564 83.1003 3.15413C83.2305 3.10262 83.3491 3.02587 83.4495 2.92831C83.5522 2.83161 83.6334 2.71438 83.6879 2.58423C83.7423 2.45408 83.7687 2.31394 83.7655 2.1729C83.7662 2.03162 83.739 1.89159 83.6852 1.76091C83.6315 1.63024 83.5524 1.51151 83.4525 1.41161C83.3526 1.31171 83.2339 1.23261 83.1032 1.17889C82.9725 1.12518 82.8325 1.09791 82.6912 1.09867H75.117C74.9685 1.09608 74.8211 1.12464 74.6843 1.18253C74.5475 1.24041 74.4244 1.32632 74.3229 1.43473C74.2196 1.5396 74.1383 1.66394 74.0836 1.80053C74.0288 1.93711 74.0018 2.08322 74.004 2.23035V13.695C74.0027 13.8416 74.0306 13.9869 74.086 14.1225C74.1415 14.2582 74.2234 14.3814 74.327 14.485C74.4307 14.5887 74.5539 14.6706 74.6895 14.726C74.8252 14.7815 74.9705 14.8094 75.117 14.808H82.6912C82.9738 14.8123 83.2465 14.7044 83.4495 14.5079C83.5519 14.4109 83.6328 14.2936 83.6873 14.1635C83.7417 14.0335 83.7683 13.8934 83.7655 13.7525C83.7664 13.6111 83.7393 13.4709 83.6856 13.34C83.632 13.2092 83.553 13.0903 83.453 12.9903C83.3531 12.8902 83.2343 12.811 83.1036 12.7572C82.9728 12.7034 82.8326 12.676 82.6912 12.6768Z" fill="white"/>
</g>
<defs>
<linearGradient id="paint0_linear_1137_1952" x1="12.2633" y1="10.7496" x2="6.87344" y2="9.15118" gradientUnits="userSpaceOnUse">
<stop offset="0.24" stop-color="#E27F26"/>
<stop offset="0.8" stop-color="#FDC24D"/>
</linearGradient>
<linearGradient id="paint1_linear_1137_1952" x1="10.5226" y1="12.9456" x2="-3.15235e-06" y2="1.38456" gradientUnits="userSpaceOnUse">
<stop stop-color="#DADADA"/>
<stop offset="1" stop-color="white"/>
</linearGradient>
<clipPath id="clip0_1137_1952">
<rect width="83.7655" height="16" fill="white"/>
</clipPath>
</defs>
</svg>
