<svg width="109" height="108" viewBox="0 0 109 108" fill="none" xmlns="http://www.w3.org/2000/svg">
<g clip-path="url(#clip0_264_3755)">
<mask id="mask0_264_3755" style="mask-type:luminance" maskUnits="userSpaceOnUse" x="0" y="0" width="109" height="108">
<path d="M108.5 0H0.5V108H108.5V0Z" fill="white"/>
</mask>
<g mask="url(#mask0_264_3755)">
<path d="M14.0069 42.5158C15.9985 42.0869 17.9606 43.3536 18.3898 45.3449C18.8186 47.3365 17.552 49.2992 15.5604 49.7281C13.5688 50.1573 11.6063 48.8903 11.1772 46.8987C10.7483 44.9071 12.0153 42.9447 14.0069 42.5158Z" fill="#FF6D83"/>
<path d="M91.9317 30.9855C93.894 30.563 95.8276 31.8107 96.2501 33.773C96.673 35.7354 95.4249 37.6686 93.4626 38.0915C91.5003 38.514 89.5671 37.2663 89.1442 35.304C88.7217 33.3416 89.9697 31.4081 91.9317 30.9855Z" fill="#6DB8FF"/>
<path d="M56.6556 8.67231C58.7058 8.23084 60.7256 9.53478 61.167 11.5846C61.6088 13.6348 60.3046 15.6553 58.2544 16.0967C56.2042 16.5385 54.1844 15.2343 53.7426 13.1841C53.3011 11.1339 54.6054 9.11378 56.6556 8.67231Z" fill="#FFB636"/>
<path d="M38.1204 88.9481C40.1706 88.5063 42.1901 89.8102 42.6319 91.8604C43.0733 93.9106 41.7697 95.9304 39.7196 96.3722C37.6694 96.8136 35.6493 95.51 35.2075 93.4598C34.766 91.41 36.0703 89.3895 38.1204 88.9481Z" fill="#6DB8FF"/>
<path d="M89.9973 71.1643C92.0764 70.7165 94.1254 72.0391 94.5732 74.1185C95.0213 76.198 93.6984 78.2466 91.6189 78.6944C89.5394 79.1425 87.4908 77.82 87.0427 75.7405C86.5949 73.661 87.9178 71.6124 89.9973 71.1643Z" fill="#BDA3FF"/>
<path d="M62.7925 23.0519C79.8849 27.6318 90.0279 45.2005 85.4484 62.2926C80.8681 79.385 63.299 89.528 46.2069 84.9481C29.1148 80.3678 18.9715 62.7995 23.5518 45.7074C28.1313 28.615 45.7 18.472 62.7925 23.0519Z" fill="#43D296"/>
<path d="M49.1899 66.1742C48.8243 66.5043 48.2618 66.4804 47.9251 66.121L36.2949 53.7006C35.8969 53.2038 35.7042 52.5777 35.7553 51.948C35.8064 51.3178 36.0978 50.7309 36.5711 50.3034C37.0445 49.8761 37.6649 49.6403 38.3081 49.6427C38.9515 49.6451 39.5705 49.8859 40.0418 50.3174L48.4237 59.2685C48.6478 59.5081 49.023 59.5235 49.2666 59.3034L66.8453 43.4305C67.3507 43.0402 67.9882 42.8517 68.6294 42.9034C69.2709 42.9546 69.869 43.2414 70.3048 43.7073C70.7406 44.1723 70.9819 44.7823 70.9803 45.4141C70.9787 46.046 70.7344 46.6534 70.296 47.1158L49.1899 66.1742Z" fill="white"/>
<path d="M29.5344 21.5468C28.9089 19.3555 27.4632 16.5167 24.126 14.7368" stroke="#FF6E83" stroke-width="2" stroke-linecap="round"/>
<path d="M25.5123 85.4127C24.8996 85.4541 24.0799 85.3771 22.9999 85.1398C15.6199 83.5198 22.1899 89.9098 22.1899 89.9098C22.1899 89.9098 23.9856 93.4346 20.3164 92.3089" stroke="#BEA4FF" stroke-width="2" stroke-linecap="round"/>
<path d="M85.3921 18.1646C87.3051 17.7092 89.4881 18.6529 91.6093 22.7745C96.0762 31.4538 85.0814 29.3697 86.3902 23.7467" stroke="#FFB636" stroke-width="2" stroke-linecap="round"/>
<path d="M76.981 85.9524C77.6106 87.5112 79.2022 89.2939 82.94 90.5399C83.4628 90.7141 83.9423 90.8884 84.3815 91.0619" stroke="#6EB9FF" stroke-width="2" stroke-linecap="round"/>
</g>
</g>
<defs>
<clipPath id="clip0_264_3755">
<rect width="108" height="108" fill="white" transform="translate(0.5)"/>
</clipPath>
</defs>
</svg>
